# xmcd CD database file
#
# Track frame offsets:
#	150
#	14042
#	28398
#	45599
#	64205
#	79071
#	102602
#	116633
#	135674
#	146833
#	158808
#	175513
#
# Disc length: 2579 seconds
#
# Revision: 2
# Processed by: cddbd v1.5.2PL0 Copyright (c) Steve Scherf et al.
# Submitted via: CDex 1.70beta2
#
DISCID=ab0a110c
DTITLE=Jonas Otter - What Will The Neihbors Say?
DYEAR=2009
DGENRE=Country
TTITLE0=Brand New Start
TTITLE1=What Will The Neighbors Say?
TTITLE2=Mountain Sky
TTITLE3=Borderline Girl
TTITLE4=Way You Kiss
TTITLE5=Two Lovers
TTITLE6=In The Backseat Of My Car
TTITLE7=Ultimate Sin
TTITLE8=These Blue Eyes Of Mine
TTITLE9=The Day You Turned My Love Into A Crime
TTITLE10=Down Unlucky Road
TTITLE11=Last Night
EXTD=YEAR: 2009
EXTT0=
EXTT1=
EXTT2=
EXTT3=
EXTT4=
EXTT5=
EXTT6=
EXTT7=
EXTT8=
EXTT9=
EXTT10=
EXTT11=
PLAYORDER=
